<?xml version="1.0" encoding="UTF-8"?>
<svg version="1.1" viewBox="0 0 24 24" xmlns="http://www.w3.org/2000/svg" xmlns:xlink="http://www.w3.org/1999/xlink">
    <!--Generated by IJSVG (https://github.com/iconjar/IJSVG)-->
    <g stroke-linecap="round" stroke-width="1" stroke="#000" fill="none" stroke-linejoin="round">
        <path d="M21.5,5.5v13"></path>
        <path d="M5.5,2.5h13"></path>
        <path d="M2.5,18.5v-13"></path>
        <path d="M18.5,21.5h-13"></path>
        <path d="M1,3.498c-0.27614,0 -0.5,-0.22386 -0.5,-0.5v-2c0,-0.27614 0.22386,-0.5 0.5,-0.5h2c0.27614,0 0.5,0.22386 0.5,0.5v2c0,0.27614 -0.22386,0.5 -0.5,0.5Z"></path>
        <path d="M21,3.498c-0.27614,0 -0.5,-0.22386 -0.5,-0.5v-2c0,-0.27614 0.22386,-0.5 0.5,-0.5h2c0.27614,0 0.5,0.22386 0.5,0.5v2c0,0.27614 -0.22386,0.5 -0.5,0.5Z"></path>
        <path d="M1,23.498c-0.27614,0 -0.5,-0.22386 -0.5,-0.5v-2c0,-0.27614 0.22386,-0.5 0.5,-0.5h2c0.27614,0 0.5,0.22386 0.5,0.5v2c0,0.27614 -0.22386,0.5 -0.5,0.5Z"></path>
        <path d="M21,23.498c-0.27614,0 -0.5,-0.22386 -0.5,-0.5v-2c0,-0.27614 0.22386,-0.5 0.5,-0.5h2c0.27614,0 0.5,0.22386 0.5,0.5v2c0,0.27614 -0.22386,0.5 -0.5,0.5Z"></path>
        <path d="M7,8.5v-1.5l5.32907e-15,7.54979e-08c-4.16963e-08,-0.276142 0.223858,-0.5 0.5,-0.5h9l-5.96244e-09,1.77636e-15c0.276142,-4.49893e-08 0.5,0.223858 0.5,0.5c3.55271e-15,2.54893e-08 7.10543e-15,5.00086e-08 7.10543e-15,7.54979e-08v1.5"></path>
        <path d="M12,6.5v12"></path>
        <path d="M10.5,18.5h3"></path>
    </g>
</svg>